<?xml version="1.0" standalone="no"?>
<!DOCTYPE svg PUBLIC "-//W3C//DTD SVG 20010904//EN"
 "http://www.w3.org/TR/2001/REC-SVG-20010904/DTD/svg10.dtd">
<svg version="1.0" xmlns="http://www.w3.org/2000/svg"
 width="380.000000pt" height="380.000000pt" viewBox="0 0 380.000000 380.000000"
 preserveAspectRatio="xMidYMid meet">

<style type="">
    @media (prefers-color-scheme: dark) {
        path{fill: red;}
    }
</style>

<g transform="translate(0,380) scale(0.1,-0.1)"
fill="#908200" stroke="none">
<path d="M1830 2753 c-201 -26 -403 -170 -490 -348 -51 -103 -70 -179 -70
-281 0 -138 29 -235 104 -352 194 -302 620 -373 914 -151 28 22 52 45 52 51 0
7 -5 6 -15 -2 -31 -25 -13 -2 40 56 72 77 144 220 150 296 2 30 5 58 6 64 1 5
0 41 -1 79 -2 39 -5 59 -7 45 -3 -14 -9 -29 -14 -34 -12 -13 -12 -29 1 -21 6
3 10 -4 10 -17 0 -18 -2 -20 -10 -8 -5 8 -10 10 -10 5 0 -6 6 -17 13 -24 6 -8
7 -11 1 -8 -7 4 -13 -13 -17 -51 -6 -55 -31 -132 -64 -196 -23 -46 -120 -164
-146 -177 -12 -7 4 15 36 49 58 61 142 214 132 239 -2 7 0 13 5 13 5 0 9 8 9
18 1 9 3 37 6 62 3 34 2 39 -4 20 -7 -19 -10 -5 -11 55 -4 123 -15 152 -16 40
-2 -169 -50 -299 -146 -397 -29 -30 -36 -36 -16 -14 39 43 108 152 108 170 0
6 -18 -19 -40 -55 -108 -181 -325 -285 -523 -251 -80 14 -193 65 -251 113
-173 145 -229 403 -130 607 123 253 445 380 695 274 l41 -18 -103 -69 c-155
-103 -209 -144 -209 -158 0 -7 7 -21 15 -31 14 -18 19 -16 114 47 105 70 117
76 108 53 -19 -48 -90 -436 -94 -512 -5 -76 -3 -93 11 -107 16 -16 20 -14 64
31 26 26 64 60 85 76 20 16 37 33 37 38 0 15 -60 -31 -119 -92 -33 -34 -46
-43 -32 -23 18 27 42 48 145 132 11 9 16 10 12 4 -19 -34 34 -3 105 60 59 51
56 66 -3 17 -21 -18 -39 -26 -43 -20 -3 5 0 10 7 10 8 0 20 9 28 19 7 11 17
18 21 16 9 -6 34 24 26 31 -6 7 -69 -33 -152 -96 -33 -25 -74 -55 -92 -67 -31
-21 -32 -21 -38 -2 -4 10 -3 24 2 31 4 7 6 24 4 37 -1 13 1 21 6 18 15 -9 64
224 78 371 1 15 5 34 8 42 18 53 26 98 21 118 -7 25 -2 27 29 11 l22 -12 -20
24 -20 23 30 -17 c29 -17 28 -17 -5 14 l-35 32 44 -24 c25 -13 71 -48 103 -78
65 -59 77 -55 22 7 -46 53 -183 146 -254 173 -55 20 -197 32 -270 22z m350
-123 c8 -5 11 -10 5 -10 -5 0 -17 5 -25 10 -8 5 -10 10 -5 10 6 0 17 -5 25
-10z m80 -593 c0 -2 -10 -12 -22 -23 l-23 -19 19 23 c18 21 26 27 26 19z m30
-393 c-8 -8 -23 -20 -34 -25 -15 -7 -13 -3 7 15 31 29 47 35 27 10z m-75 -4
c-4 -6 -25 -20 -48 -31 -49 -25 -43 -15 11 17 44 27 45 27 37 14z"/>
</g>
<g transform="translate(0,380) scale(0.1,-0.1)"
fill="#8d8484" stroke="none"><path d="M1675 2388 c-20 -24 -55 -79 -77 -123 -66 -129 -65 -239 3 -275 36
-20 112 13 144 63 l27 42 -44 -42 c-24 -24 -48 -43 -53 -43 -6 0 11 20 37 45
56 52 83 58 91 18 6 -30 -19 -137 -51 -221 -12 -30 -18 -61 -16 -70 5 -16 5
-16 -5 0 -6 9 -17 40 -25 70 -9 35 -19 54 -31 56 -32 7 -37 -12 -19 -81 21
-83 36 -106 57 -88 9 7 21 10 27 6 5 -3 10 0 10 8 0 8 9 25 21 38 11 13 17 18
13 10 -5 -10 -3 -12 5 -6 8 4 10 18 7 34 -3 14 -3 20 0 14 12 -27 24 -10 44
60 12 39 25 80 31 89 5 10 9 39 10 65 0 44 1 46 11 23 l11 -25 5 23 c4 28 -47
82 -78 82 -34 0 -82 -26 -130 -70 -41 -38 -46 -40 -57 -24 -7 10 -13 27 -13
38 0 54 62 226 81 226 4 0 10 -14 14 -31 7 -31 25 -45 49 -36 10 4 11 17 5 59
-19 118 -45 134 -104 66z m13 -67 c-12 -22 -26 -37 -30 -35 -9 6 31 74 43 74
5 0 -1 -18 -13 -39z" />

<path d="M2492 2210 c0 -14 2 -19 5 -12 2 6 2 18 0 25 -3 6 -5 1 -5 -13z"/>
<path d="M2412 2090 c0 -14 2 -19 5 -12 2 6 2 18 0 25 -3 6 -5 1 -5 -13z"/>
<path d="M1892 2025 c0 -16 2 -22 5 -12 2 9 2 23 0 30 -3 6 -5 -1 -5 -18z"/>
<path d="M1881 1964 c0 -11 3 -14 6 -6 3 7 2 16 -1 19 -3 4 -6 -2 -5 -13z"/>
<path d="M1862 1892 c-8 -29 -17 -52 -21 -52 -4 0 -13 -12 -20 -27 -12 -26
-12 -26 11 -11 22 15 51 96 45 128 -1 8 -8 -9 -15 -38z"/>
<path d="M2435 1793 c-10 -14 -36 -46 -58 -70 -22 -23 -35 -43 -29 -43 13 0
77 72 97 109 19 38 13 40 -10 4z"/>
</g>
</svg>
